# xmcd CD database file
#
# Track frame offsets:
#	150
#	11899
#	24565
#	37176
#	50271
#	63969
#	76008
#	87390
#	99437
#	117240
#	129192
#	140786
#	159786
#	170308
#	188653
#	198768
#	211855
#	225142
#	236564
#	247688
#	261427
#	276424
#	289295
#	302315
#	316364
#
# Disc length: 4398 seconds
#
# Revision: 0
# Processed by: cddbd v1.5.2PL0 Copyright (c) Steve Scherf et al.
# Submitted via: CDex 1.51
#
DISCID=45112c19
DTITLE=B.B. KING - The Kent Years 1958-1962
DYEAR=2013
DGENRE=Blues
TTITLE0=Please Accept My Love
TTITLE1=Please Love Me
TTITLE2=Ten Long Years
TTITLE3=When My Heart Beats Like A Hammer
TTITLE4=You Upset Me Baby
TTITLE5=The Fool
TTITLE6=Fishin' After Me
TTITLE7=Get Out Of Here
TTITLE8=Hold That Train
TTITLE9=Understand
TTITLE10=Someday
TTITLE11=You're Breaking My Heart
TTITLE12=Bad Case Of Love
TTITLE13=My Sometime Baby
TTITLE14=Lonely
TTITLE15=Gonna Miss You Around Here
TTITLE16=Hully Gully Twist
TTITLE17=3 O' Clock Stomp
TTITLE18=Mashed Potato Twist
TTITLE19=Mashing The Popeye
TTITLE20=Tell Me Baby
TTITLE21=Going Down Slow
TTITLE22=Blues For Me
TTITLE23=Things Are Not The Same
TTITLE24=You`ve Been An Angel
EXTD=YEAR: 2013
EXTT0=
EXTT1=
EXTT2=
EXTT3=
EXTT4=
EXTT5=
EXTT6=
EXTT7=
EXTT8=
EXTT9=
EXTT10=
EXTT11=
EXTT12=
EXTT13=
EXTT14=
EXTT15=
EXTT16=
EXTT17=
EXTT18=
EXTT19=
EXTT20=
EXTT21=
EXTT22=
EXTT23=
EXTT24=
PLAYORDER=
